HIERARCHY
ROOT Hips
{
 OFFSET 0.000000 0.000000 0.000000
 CHANNELS 6 Xposition Yposition Zposition Yrotation Xrotation Zrotation
 JOINT Chest
 {
  OFFSET 0.000000 9.585900 0.002600
  CHANNELS 3 Yrotation Xrotation Zrotation
  JOINT Chest2
  {
   OFFSET 0.000000 9.601200 -0.005300
   CHANNELS 3 Yrotation Xrotation Zrotation
   JOINT Chest3
   {
    OFFSET 0.000000 9.561800 0.000000
    CHANNELS 3 Yrotation Xrotation Zrotation
    JOINT Chest4
    {
     OFFSET 0.000000 9.552100 0.000000
     CHANNELS 3 Yrotation Xrotation Zrotation
     JOINT Neck
     {
      OFFSET 0.000000 14.453000 0.000000
      CHANNELS 3 Yrotation Xrotation Zrotation
      JOINT Head
      {
       OFFSET 0.000000 8.936500 -0.011300
       CHANNELS 3 Yrotation Xrotation Zrotation
       End Site
       {
        OFFSET 0.000000 17.073600 -0.006000
       }
      }
     }
     JOINT RightCollar
     {
      OFFSET -2.921100 9.558500 0.000000
      CHANNELS 3 Yrotation Xrotation Zrotation
      JOINT RightShoulder
      {
       OFFSET -13.519700 0.000000 0.000000
       CHANNELS 3 Yrotation Xrotation Zrotation
       JOINT RightElbow
       {
        OFFSET 0.000000 -29.696600 0.000000
        CHANNELS 3 Yrotation Xrotation Zrotation
        JOINT RightWrist
        {
         OFFSET 0.000000 -24.004700 0.000000
         CHANNELS 3 Yrotation Xrotation Zrotation
         End Site
         {
          OFFSET 0.000000 -17.728500 0.000000
         }
        }
       }
      }
     }
     JOINT LeftCollar
     {
      OFFSET 2.921100 9.558500 0.000000
      CHANNELS 3 Yrotation Xrotation Zrotation
      JOINT LeftShoulder
      {
       OFFSET 13.519700 0.000000 0.000000
       CHANNELS 3 Yrotation Xrotation Zrotation
       JOINT LeftElbow
       {
        OFFSET 0.000000 -29.696600 0.000000
        CHANNELS 3 Yrotation Xrotation Zrotation
        JOINT LeftWrist
        {
         OFFSET 0.000000 -24.004700 0.000000
         CHANNELS 3 Yrotation Xrotation Zrotation
         End Site
         {
          OFFSET 0.000000 -17.728500 0.000000
         }
        }
       }
      }
     }
    }
   }
  }
 }
 JOINT RightHip
 {
  OFFSET -7.771700 -0.012900 -0.001300
  CHANNELS 3 Yrotation Xrotation Zrotation
  JOINT RightKnee
  {
   OFFSET 0.000000 -40.869800 0.001200
   CHANNELS 3 Yrotation Xrotation Zrotation
   JOINT RightAnkle
   {
    OFFSET 0.000000 -39.717900 0.002100
    CHANNELS 3 Yrotation Xrotation Zrotation
    JOINT RightToe
    {
     OFFSET 0.000000 -4.965400 11.033500
     CHANNELS 3 Yrotation Xrotation Zrotation
     End Site
     {
      OFFSET 0.000000 -1.423100 5.872300
     }
    }
   }
  }
 }
 JOINT LeftHip
 {
  OFFSET 7.771700 -0.012900 -0.001300
  CHANNELS 3 Yrotation Xrotation Zrotation
  JOINT LeftKnee
  {
   OFFSET 0.000000 -40.869800 0.001200
   CHANNELS 3 Yrotation Xrotation Zrotation
   JOINT LeftAnkle
   {
    OFFSET 0.000000 -39.717900 0.002100
    CHANNELS 3 Yrotation Xrotation Zrotation
    JOINT LeftToe
    {
     OFFSET 0.000000 -4.965400 11.033500
     CHANNELS 3 Yrotation Xrotation Zrotation
     End Site
     {
      OFFSET 0.000000 -1.423100 5.872300
     }
    }
   }
  }
 }
}
MOTION
Frames: 9
Frame Time: 0.008333
0.000000 85.388000 0.000000 0.000000 -5.767877 0.000000 0.000000 11.653817 0.000000 0.000000 -5.885947 0.000000 0.000000 -0.000000 0.000000 0.000000 -0.000000 0.000000 0.000000 12.528835 0.000000 0.000000 0.711642 0.000000 0.000000 -0.000000 0.000000 0.000000 0.000000 -90.000000 0.000000 -2.309062 0.000000 0.000000 2.309062 0.000000 0.000000 -0.000000 0.000000 0.000000 -0.000000 90.000000 0.000000 -2.309062 0.000000 0.000000 2.309062 0.000000 0.000000 8.520406 0.000000 0.000000 1.905762 0.000000 -0.000000 -4.658285 0.000000 0.000000 -0.000000 0.000000 0.000000 8.520406 0.000000 0.000000 1.905762 0.000000 -0.000000 -4.658285 0.000000 0.000000 -0.000000 0.000000
-93.057033 57.482715 91.998770 177.387029 -32.102421 0.967309 0.853865 18.799303 4.664787 -0.000654 2.236935 0.558679 0.018949 3.690050 0.920061 0.600651 16.238453 4.124183 -0.173778 19.426534 -3.480389 0.753390 0.341439 -6.305063 1.572836 -1.063404 -1.696368 0.838347 -19.036549 -2.848669 138.981086 -46.548499 -131.717682 17.241718 -15.734059 -53.760613 -5.390039 1.152402 -0.467876 28.961860 -3.364539 5.829948 -132.261748 -34.219452 138.964993 -14.010263 -7.205747 31.710120 6.505460 -44.007222 -7.665353 -17.435947 69.062840 -20.431395 12.484459 20.558521 7.841142 -0.270164 -15.180852 1.627686 -6.484525 -41.374591 0.167573 28.445009 67.215926 25.283942 -15.648878 5.213416 -2.613751 0.122334 0.288959 0.122288
-93.056835 57.480055 92.003147 177.356544 -32.106420 0.992154 0.844770 18.791283 4.655302 0.012267 2.243705 0.554001 -0.026627 3.669785 0.941425 0.604551 16.246088 4.110654 0.019546 19.518418 -3.481518 1.155899 0.558965 -6.432044 1.623924 -1.071011 -1.699804 1.181945 -18.934009 -3.082192 139.614036 -46.517116 -131.689574 17.431961 -15.873964 -54.019587 -5.465731 1.082063 -0.491575 28.532597 -3.267896 5.796818 -132.302708 -34.182520 138.821491 -13.952268 -7.607287 32.016419 6.562234 -44.016373 -7.699025 -17.436680 69.075020 -20.410638 12.483540 20.579367 7.834159 -0.268774 -15.193878 1.628867 -6.435532 -41.359309 0.141057 28.425350 67.196693 25.284680 -15.654601 5.196893 -2.626699 0.116819 0.279280 0.110125
-93.058785 57.476883 92.008372 177.329381 -32.109308 1.028725 0.804460 18.776187 4.635579 0.007425 2.241090 0.555293 -0.023897 3.680050 0.945823 0.556011 16.231411 4.131012 0.184768 19.607208 -3.537396 1.510841 0.764096 -6.532130 1.714194 -1.047513 -1.764571 1.553709 -18.870731 -3.308997 140.259035 -46.507589 -131.668919 17.572900 -16.062111 -54.134918 -5.519402 1.014644 -0.582665 28.074920 -3.148572 5.765893 -132.329602 -34.007410 138.769534 -13.878771 -8.152527 32.354466 6.619993 -44.017389 -7.744095 -17.432740 69.074638 -20.389927 12.492574 20.610793 7.831497 -0.268830 -15.215341 1.627663 -6.400208 -41.352045 0.107615 28.418755 67.183187 25.291703 -15.686860 5.140724 -2.664267 0.142578 0.281113 0.105673
-93.056984 57.472778 92.015155 177.325092 -32.106240 1.030288 0.726512 18.765029 4.656939 0.010090 2.241743 0.553163 0.004304 3.691458 0.929286 0.518995 16.226552 4.155211 0.328171 19.692307 -3.577799 1.757388 0.917611 -6.612739 1.786654 -1.046854 -1.830792 1.949380 -18.827529 -3.542168 140.868906 -46.481754 -131.628361 17.724848 -16.264322 -54.144025 -5.601532 0.925505 -0.688040 27.602626 -3.010512 5.731469 -132.364963 -33.708158 138.829234 -13.807371 -8.852522 32.714296 6.638304 -44.026625 -7.759683 -17.430104 69.075054 -20.371504 12.500987 20.624978 7.833425 -0.263976 -15.221235 1.621744 -6.417318 -41.350604 0.111304 28.406182 67.171764 25.286106 -15.677284 5.112456 -2.681105 0.144289 0.289315 0.095738
-93.055058 57.469102 92.021168 177.310678 -32.110557 1.035897 0.707756 18.772563 4.674121 -0.001515 2.243708 0.561993 0.009350 3.696337 0.926538 0.520455 16.223137 4.143078 0.436197 19.780257 -3.556830 1.892663 1.020418 -6.679423 1.831999 -1.070265 -1.845995 2.353344 -18.790061 -3.783158 141.356312 -46.398408 -131.528517 17.966529 -16.461781 -54.149701 -5.727583 0.834381 -0.755982 27.130978 -2.858950 5.680703 -132.401235 -33.294997 138.989701 -13.751246 -9.694263 33.098560 6.666788 -44.029429 -7.774385 -17.464494 69.075175 -20.382216 12.503437 20.635769 7.823425 -0.259940 -15.223372 1.622028 -6.438102 -41.345460 0.117788 28.423042 67.160926 25.307336 -15.666487 5.100860 -2.702776 0.142783 0.281168 0.087865
-93.050149 57.464883 92.027939 177.310330 -32.111260 1.014795 0.690330 18.780482 4.713673 -0.003212 2.247925 0.564608 0.006539 3.702965 0.930661 0.517959 16.213170 4.130989 0.475352 19.846064 -3.550751 1.967867 1.107800 -6.731414 1.938927 -1.108987 -1.856784 2.718841 -18.745942 -4.025025 141.616886 -46.220411 -131.334119 18.305381 -16.664516 -54.209727 -5.848851 0.749255 -0.827087 26.677545 -2.698142 5.603025 -132.428159 -32.784903 139.218119 -13.714174 -10.649474 33.513120 6.657906 -44.036189 -7.757858 -17.484295 69.074938 -20.380206 12.489817 20.625582 7.799628 -0.254309 -15.203641 1.629408 -6.499993 -41.345627 0.154628 28.437845 67.152625 25.314885 -15.611016 5.133810 -2.697041 0.102624 0.241316 0.062447
-93.047585 57.461059 92.033745 177.299568 -32.117773 1.012331 0.688561 18.794808 4.735611 -0.000771 2.247756 0.560466 0.000349 3.718168 0.946275 0.487208 16.249663 4.183553 0.474177 19.857605 -3.626461 1.956407 1.169139 -6.770759 2.010031 -1.166685 -1.950729 3.158461 -18.733243 -4.230408 141.585755 -45.929463 -131.030075 18.677638 -16.876834 -54.305315 -5.934084 0.610836 -0.957347 26.256557 -2.529537 5.493300 -132.450710 -32.201752 139.486578 -13.705500 -11.676809 33.954560 6.671577 -44.035706 -7.757631 -17.505923 69.075036 -20.385065 12.482054 20.631912 7.794840 -0.241821 -15.202285 1.623647 -6.553262 -41.344014 0.173642 28.386928 67.157997 25.283848 -15.576534 5.133410 -2.748169 0.123043 0.237277 0.064311
-93.052835 57.457117 92.039318 177.276098 -32.122828 1.062647 0.692210 18.803592 4.700166 -0.004327 2.253017 0.567288 0.004536 3.728669 0.957084 0.479802 16.241052 4.169722 0.431372 19.902906 -3.628667 1.857757 1.215385 -6.793908 2.044754 -1.180956 -1.960570 3.597910 -18.713423 -4.388682 141.292041 -45.543903 -130.647264 19.006718 -17.091472 -54.380865 -6.035869 0.527868 -1.008874 25.873517 -2.360030 5.350868 -132.480547 -31.568738 139.777981 -13.734546 -12.715488 34.406504 6.788254 -44.032712 -7.866583 -17.534299 69.087519 -20.362514 12.493785 20.647838 7.797471 -0.250175 -15.215604 1.619520 -6.530684 -41.345749 0.127081 28.352606 67.155175 25.264596 -15.598720 5.112187 -2.804302 0.164730 0.243798 0.082510
